# 3ds Max Wavefront OBJ Exporter v0.97b - (c)2007 guruware
# File Created: 27.08.2016 08:42:16

mtllib Shootgun.mtl

#
# object Box001
#

v  -9.0987 -1.2313 -4.1844
v  -9.0508 -1.2116 -5.4836
v  -6.9918 1.1832 -5.3714
v  -7.0397 1.1635 -4.0723
v  -10.0007 -0.4548 -4.2059
v  -7.9417 1.9400 -4.0937
v  -7.8938 1.9597 -5.3929
v  -9.9528 -0.4351 -5.5050
v  -6.2208 2.1087 -4.2934
v  -6.1924 2.1203 -5.0621
v  -6.7973 2.6411 -5.0765
v  -6.8256 2.6294 -4.3078
v  -6.1507 0.7232 -4.3383
v  -6.1243 0.7340 -5.0542
v  -5.6288 1.3149 -4.8625
v  -5.6431 1.3090 -4.4754
v  -9.0987 -1.2313 4.1844
v  -7.0397 1.1635 4.0723
v  -6.9918 1.1832 5.3714
v  -9.0508 -1.2116 5.4836
v  -10.0007 -0.4548 4.2059
v  -9.9528 -0.4351 5.5050
v  -7.8938 1.9597 5.3929
v  -7.9417 1.9400 4.0937
v  -6.2208 2.1087 4.2934
v  -6.8256 2.6294 4.3078
v  -6.7973 2.6411 5.0765
v  -6.1924 2.1203 5.0621
v  -6.1507 0.7232 4.3383
v  -5.6431 1.3090 4.4754
v  -5.6288 1.3149 4.8625
v  -6.1243 0.7340 5.0542
v  -6.0404 -4.4469 -4.2497
v  -6.0404 -1.3742 -8.4790
v  50.2169 -1.3742 -8.4790
v  50.2169 -4.4469 -4.2497
v  -6.0404 3.5976 -6.8635
v  50.2169 3.5976 -6.8635
v  -6.0404 3.5976 -1.6359
v  50.2169 3.5976 -1.6359
v  -6.0404 -1.3742 -0.0205
v  50.2169 -1.3742 -0.0205
v  -6.0404 -4.4469 4.2497
v  50.2169 -4.4469 4.2497
v  50.2169 -1.3742 8.4790
v  -6.0404 -1.3742 8.4790
v  50.2169 3.5976 6.8635
v  -6.0404 3.5976 6.8635
v  50.2169 3.5976 1.6359
v  -6.0404 3.5976 1.6359
v  50.2169 -1.3742 0.0205
v  -6.0404 -1.3742 0.0205
v  46.0487 2.7759 -4.1991
v  46.0487 2.7759 -4.9364
v  48.8392 2.7759 -4.9364
v  48.8392 2.7759 -4.1991
v  46.0487 4.9301 -4.1991
v  48.8392 4.9301 -4.1991
v  48.8392 4.9301 -4.9364
v  46.0487 4.9301 -4.9364
v  46.0487 2.7759 4.1991
v  48.8392 2.7759 4.1991
v  48.8392 2.7759 4.9364
v  46.0487 2.7759 4.9364
v  46.0487 4.9301 4.1991
v  46.0487 4.9301 4.9364
v  48.8392 4.9301 4.9364
v  48.8392 4.9301 4.1991
v  10.1138 -4.1096 -7.1180
v  -3.0355 -4.0999 -7.1180
v  -3.0355 -0.2435 -7.7362
v  10.1138 -0.2435 -7.7362
v  10.1138 -7.7235 -2.8111
v  -3.0355 -7.7235 -2.8111
v  10.1138 -7.7235 -0.0000
v  -3.0355 -7.6248 -0.0000
v  17.0553 -0.2964 -7.6724
v  17.8270 -2.7427 -7.1180
v  17.8270 -6.3394 -2.8111
v  17.8270 -6.3394 -0.0000
v  19.9876 -1.8752 -7.1180
v  19.9876 -5.4718 -2.8111
v  19.9876 -5.4718 -0.0000
v  21.4692 -3.4185 -3.0924
v  21.4692 -3.4185 -0.0000
v  21.4692 -1.3070 -3.0924
v  21.4692 -1.3070 -0.0000
v  -3.0484 -1.3070 -0.0000
v  10.1764 -1.3070 -0.0000
v  10.1764 -1.2541 -3.0924
v  -3.0484 -1.2541 -3.0924
v  -6.2362 -4.0999 -7.1180
v  -6.1693 -0.9525 -6.8643
v  -6.2362 -7.7235 -2.8111
v  -6.2362 -7.6248 -0.0000
v  17.8047 -1.3070 -0.0000
v  17.8047 -1.3070 -3.0924
v  -15.5891 -4.1096 -7.1180
v  -15.5478 -1.0594 -6.6568
v  -15.5891 -7.7235 -2.8111
v  -6.2054 0.8305 -3.0924
v  -6.2054 0.7775 -0.0000
v  -16.1678 -7.7235 -0.0000
v  -18.7344 -1.9293 -3.0924
v  -18.9537 -1.9823 -0.0000
v  -17.6936 0.3418 -0.0000
v  -17.5177 0.2034 -3.0924
v  -18.5126 -4.0013 -3.0924
v  -18.7069 -4.0543 -0.0000
v  -17.5208 -1.4944 -5.0552
v  -17.4305 -4.0554 -5.2858
v  -15.4654 1.1099 -0.0000
v  -15.5529 0.8601 -3.0924
v  10.1138 -4.1096 7.1180
v  10.1138 -0.2435 7.7362
v  -3.0355 -0.2435 7.7362
v  -3.0355 -4.0999 7.1180
v  10.1138 -7.7235 2.8111
v  -3.0355 -7.7235 2.8111
v  17.8270 -2.7427 7.1180
v  17.0553 -0.2964 7.6724
v  17.8270 -6.3394 2.8111
v  19.9876 -1.8752 7.1180
v  19.9876 -5.4718 2.8111
v  21.4692 -3.4185 3.0924
v  21.4692 -1.3070 3.0924
v  -3.0484 -1.2541 3.0924
v  10.1764 -1.2541 3.0924
v  -6.1693 -0.9525 6.8643
v  -6.2362 -4.0999 7.1180
v  -6.2362 -7.7235 2.8111
v  17.8047 -1.3070 3.0924
v  -15.5478 -1.0594 6.6568
v  -15.5891 -4.1096 7.1180
v  -15.5891 -7.7235 2.8111
v  -6.2054 0.8305 3.0924
v  -18.7344 -1.9293 3.0924
v  -17.5177 0.2034 3.0924
v  -18.5126 -4.0013 3.0924
v  -17.4305 -4.0554 5.2858
v  -17.5208 -1.4944 5.0552
v  -15.5529 0.8601 3.0924
# 142 vertices

vn 0.0401 -0.8229 0.5668
vn 0.0826 -0.8054 -0.5870
vn 0.2838 -0.3800 -0.8804
vn 0.2187 -0.4067 0.8870
vn -0.8349 -0.0696 0.5460
vn -0.4513 0.5753 0.6822
vn -0.4005 0.5962 -0.6958
vn -0.7924 -0.0522 -0.6078
vn 0.5879 0.4792 0.6517
vn 0.6337 0.4981 -0.5919
vn 0.1171 0.8569 -0.5020
vn 0.0789 0.8412 0.5349
vn 0.2224 -0.8061 0.5484
vn 0.2630 -0.7894 -0.5547
vn 0.9093 -0.0322 -0.4149
vn 0.8763 -0.0457 0.4795
vn 0.0401 -0.8229 -0.5668
vn 0.2187 -0.4067 -0.8870
vn 0.2838 -0.3800 0.8804
vn 0.0826 -0.8054 0.5870
vn -0.8349 -0.0696 -0.5460
vn -0.7924 -0.0522 0.6078
vn -0.4005 0.5962 0.6958
vn -0.4513 0.5753 -0.6822
vn 0.5879 0.4792 -0.6517
vn 0.0789 0.8412 -0.5349
vn 0.1171 0.8569 0.5020
vn 0.6337 0.4981 0.5919
vn 0.2224 -0.8061 -0.5484
vn 0.8763 -0.0457 -0.4795
vn 0.9093 -0.0322 0.4149
vn 0.2630 -0.7894 0.5547
vn -0.0000 -1.0000 -0.0000
vn -0.0000 -0.3090 -0.9511
vn -0.0000 -1.0000 0.0000
vn 0.0000 0.8090 -0.5878
vn 0.0000 0.8090 0.5878
vn -0.0000 -0.3090 0.9511
vn 1.0000 0.0000 -0.0000
vn -1.0000 0.0000 -0.0000
vn 0.0000 -1.0000 -0.0000
vn 0.0000 1.0000 -0.0000
vn 0.0000 0.0000 1.0000
vn -0.0000 0.0000 -1.0000
vn 0.0000 0.0000 -1.0000
vn -0.0000 0.0000 1.0000
vn 0.0427 -0.5093 -0.8595
vn -0.0002 -0.4926 -0.8703
vn -0.1159 0.7307 -0.6728
vn 0.0059 0.7262 -0.6874
vn 0.0806 -0.9391 -0.3341
vn -0.0001 -0.9454 -0.3260
vn 0.0849 -0.9964 0.0000
vn -0.0005 -1.0000 0.0000
vn 0.1392 0.7047 -0.6958
vn 0.1544 -0.5196 -0.8403
vn 0.2565 -0.9099 -0.3262
vn 0.2761 -0.9611 -0.0000
vn 0.6385 0.0578 -0.7675
vn 0.5646 -0.7767 -0.2793
vn 0.6161 -0.7877 -0.0000
vn 0.9175 -0.3294 -0.2230
vn 0.9516 -0.3075 -0.0000
vn 0.7475 0.6550 -0.1111
vn 0.7071 0.7071 0.0000
vn 0.2868 0.9580 -0.0000
vn -0.0000 1.0000 -0.0000
vn 0.0019 0.9934 0.1146
vn 0.2098 0.9773 0.0298
vn -0.0349 -0.4158 -0.9088
vn -0.0567 0.6597 -0.7494
vn 0.0001 -0.9454 -0.3260
vn 0.0009 -1.0000 0.0000
vn 0.0026 1.0000 0.0000
vn 0.0033 0.9941 0.1081
vn -0.3443 -0.3158 -0.8842
vn -0.3223 0.5287 -0.7853
vn -0.3595 -0.8774 -0.3178
vn 0.2760 0.9392 -0.2043
vn 0.3057 0.9521 0.0000
vn -0.5049 -0.8632 -0.0000
vn -0.9468 0.1919 -0.2585
vn -0.9824 0.1868 0.0000
vn -0.6477 0.7619 -0.0000
vn -0.5769 0.7527 -0.3172
vn -0.9026 -0.3591 -0.2376
vn -0.9289 -0.3704 -0.0000
vn -0.7075 0.3663 -0.6044
vn -0.7542 -0.3071 -0.5804
vn -0.1561 0.9877 0.0000
vn -0.1762 0.9392 -0.2948
vn 0.0427 -0.5093 0.8595
vn 0.0059 0.7262 0.6874
vn -0.1159 0.7307 0.6728
vn -0.0002 -0.4926 0.8703
vn 0.0806 -0.9391 0.3341
vn -0.0001 -0.9454 0.3260
vn 0.1544 -0.5196 0.8403
vn 0.1392 0.7047 0.6958
vn 0.2565 -0.9099 0.3262
vn 0.6385 0.0578 0.7675
vn 0.5646 -0.7767 0.2793
vn 0.9175 -0.3294 0.2230
vn 0.7475 0.6550 0.1111
vn 0.2098 0.9773 -0.0298
vn 0.0019 0.9934 -0.1146
vn -0.0567 0.6597 0.7494
vn -0.0349 -0.4158 0.9088
vn 0.0001 -0.9454 0.3260
vn 0.0033 0.9941 -0.1081
vn -0.3223 0.5287 0.7853
vn -0.3443 -0.3158 0.8842
vn -0.3595 -0.8774 0.3178
vn 0.2760 0.9392 0.2043
vn -0.9468 0.1919 0.2585
vn -0.5769 0.7527 0.3172
vn -0.9026 -0.3591 0.2376
vn -0.7542 -0.3071 0.5804
vn -0.7075 0.3663 0.6044
vn -0.1762 0.9392 0.2948
# 120 vertex normals

vt 0.2420 0.5701 0.0000
vt 0.1939 0.5728 0.0000
vt 0.1874 0.4560 0.0000
vt 0.2354 0.4533 0.0000
vt 0.2859 0.5676 0.0000
vt 0.2794 0.4509 0.0000
vt 0.3274 0.4482 0.0000
vt 0.3340 0.5649 0.0000
vt 0.1423 0.3718 0.0000
vt 0.1680 0.3841 0.0000
vt 0.1553 0.4107 0.0000
vt 0.1296 0.3985 0.0000
vt 0.1848 0.4091 0.0000
vt 0.1434 0.4585 0.0000
vt 0.1966 0.6208 0.0000
vt 0.1526 0.6232 0.0000
vt 0.1500 0.5752 0.0000
vt 0.1000 0.4378 0.0000
vt 0.0742 0.4021 0.0000
vt 0.1123 0.3746 0.0000
vt 0.0616 0.3662 0.0000
vt 0.0509 0.3420 0.0000
vt 0.0795 0.3360 0.0000
vt 0.0852 0.3492 0.0000
vt 0.1275 0.3505 0.0000
vt 0.0929 0.3370 0.0000
vt 0.0262 0.4044 0.0000
vt 0.0352 0.3675 0.0000
vt 0.2216 0.4141 0.0000
vt 0.2232 0.4432 0.0000
vt 0.8700 0.2305 1.0000
vt 0.8700 0.2983 1.0000
vt 0.1405 0.2983 1.0000
vt 0.1405 0.2305 1.0000
vt 0.8700 0.3660 1.0000
vt 0.1405 0.3660 1.0000
vt 0.8700 0.0271 1.0000
vt 0.8700 0.0949 1.0000
vt 0.1405 0.0949 1.0000
vt 0.1405 0.0271 1.0000
vt 0.8700 0.1627 1.0000
vt 0.1405 0.1627 1.0000
vt 0.0760 0.1836 1.0000
vt 0.0362 0.1288 1.0000
vt 0.0760 0.0739 1.0000
vt 0.9345 0.1836 1.0000
vt 0.9345 0.0739 1.0000
vt 0.9743 0.1288 1.0000
vt 0.9437 0.4177 0.0000
vt 0.9838 0.4177 0.0000
vt 0.9838 0.5697 0.0000
vt 0.9437 0.5697 0.0000
vt 0.8264 0.4177 0.0000
vt 0.8264 0.5697 0.0000
vt 0.7862 0.5697 0.0000
vt 0.7862 0.4177 0.0000
vt 0.9437 0.6098 0.0000
vt 0.8264 0.6098 0.0000
vt 0.6689 0.5697 0.0000
vt 0.6689 0.4177 0.0000
vt 0.9437 0.3776 0.0000
vt 0.8264 0.3776 0.0000
vt 0.3288 0.7725 0.0000
vt 0.5717 0.7776 0.0000
vt 0.5676 0.8480 0.0000
vt 0.3231 0.8437 0.0000
vt 0.3311 0.6686 0.0000
vt 0.5718 0.6735 0.0000
vt 0.3284 0.6167 0.0000
vt 0.5714 0.6214 0.0000
vt 0.1884 0.8397 0.0000
vt 0.1904 0.7871 0.0000
vt 0.1909 0.6816 0.0000
vt 0.1799 0.6310 0.0000
vt 0.1596 0.7903 0.0000
vt 0.1537 0.6916 0.0000
vt 0.1325 0.6460 0.0000
vt 0.1198 0.7203 0.0000
vt 0.0879 0.6747 0.0000
vt 0.0943 0.7497 0.0000
vt 0.0564 0.7020 0.0000
vt 0.5700 0.9887 0.0000
vt 0.3174 0.9875 0.0000
vt 0.3187 0.9305 0.0000
vt 0.5675 0.9313 0.0000
vt 0.6319 0.7788 0.0000
vt 0.6315 0.8423 0.0000
vt 0.6295 0.6730 0.0000
vt 0.6279 0.6207 0.0000
vt 0.1766 0.9847 0.0000
vt 0.1091 0.9852 0.0000
vt 0.1088 0.9282 0.0000
vt 0.1767 0.9274 0.0000
vt 0.8075 0.7622 0.0000
vt 0.8011 0.8158 0.0000
vt 0.8011 0.6611 0.0000
vt 0.6559 0.9188 0.0000
vt 0.6676 0.9749 0.0000
vt 0.8096 0.6089 0.0000
vt 0.8797 0.8356 0.0000
vt 0.9272 0.8649 0.0000
vt 0.8882 0.9102 0.0000
vt 0.8524 0.8681 0.0000
vt 0.8926 0.8022 0.0000
vt 0.9457 0.8206 0.0000
vt 0.9090 0.7170 0.0000
vt 0.9617 0.7354 0.0000
vt 0.8412 0.8243 0.0000
vt 0.8530 0.7823 0.0000
vt 0.8409 0.9369 0.0000
vt 0.8214 0.8843 0.0000
# 111 texture coords

g Box001
usemtl 01___Default
s 1
f 1/1/1 2/2/2 3/3/3 4/4/4 
f 5/5/5 6/6/6 7/7/7 8/8/8 
f 1/1/1 4/4/4 6/6/6 5/5/5 
f 9/9/9 10/10/10 11/11/11 12/12/12 
f 10/13/10 3/3/3 7/14/7 11/11/11 
f 2/2/2 1/15/1 5/16/5 8/17/8 
f 6/18/6 12/12/12 11/11/11 7/14/7 
f 4/19/4 9/20/9 12/12/12 6/18/6 
f 3/3/3 2/2/2 8/17/8 7/14/7 
f 13/21/13 14/22/14 15/23/15 16/24/16 
f 10/25/10 9/20/9 16/24/16 15/26/15 
f 9/20/9 4/19/4 13/21/13 16/24/16 
f 4/19/4 3/27/3 14/28/14 13/21/13 
f 3/3/3 10/13/10 15/29/15 14/30/14 
f 17/1/17 18/4/18 19/3/19 20/2/20 
f 21/5/21 22/8/22 23/7/23 24/6/24 
f 17/1/17 21/5/21 24/6/24 18/4/18 
f 25/9/25 26/12/26 27/11/27 28/10/28 
f 28/13/28 27/11/27 23/14/23 19/3/19 
f 20/2/20 22/17/22 21/16/21 17/15/17 
f 24/18/24 23/14/23 27/11/27 26/12/26 
f 18/19/18 24/18/24 26/12/26 25/20/25 
f 19/3/19 23/14/23 22/17/22 20/2/20 
f 29/21/29 30/24/30 31/23/31 32/22/32 
f 28/25/28 31/26/31 30/24/30 25/20/25 
f 25/20/25 30/24/30 29/21/29 18/19/18 
f 18/19/18 29/21/29 32/28/32 19/27/19 
f 19/3/19 32/30/32 31/29/31 28/13/28 
s 8
f 33/31/33 34/32/34 35/33/34 36/34/35 
f 34/32/34 37/35/36 38/36/36 35/33/34 
f 37/37/36 39/38/37 40/39/37 38/40/36 
f 39/38/37 41/41/38 42/42/38 40/39/37 
f 41/41/38 33/31/33 36/34/35 42/42/38 
s off
f 42/42/39 36/43/39 35/44/39 38/45/39 40/39/39 
f 33/46/40 41/41/40 39/38/40 37/47/40 34/48/40 
s 8
f 43/31/33 44/34/33 45/33/38 46/32/38 
f 46/32/38 45/33/38 47/36/37 48/35/37 
f 48/37/37 47/40/37 49/39/36 50/38/36 
f 50/38/36 49/39/36 51/42/34 52/41/34 
f 52/41/34 51/42/34 44/34/33 43/31/33 
s off
f 51/42/39 49/39/39 47/45/39 45/44/39 44/43/39 
f 43/46/40 46/48/40 48/47/40 50/38/40 52/41/40 
s 2
f 53/49/41 54/50/41 55/51/41 56/52/41 
s 4
f 57/53/42 58/54/42 59/55/42 60/56/42 
s 8
f 53/49/43 56/52/43 58/54/43 57/53/43 
s 16
f 56/52/39 55/57/39 59/58/39 58/54/39 
s 32
f 55/59/44 54/60/44 60/56/44 59/55/44 
s 64
f 54/61/40 53/49/40 57/53/40 60/62/40 
s 2
f 61/49/41 62/52/41 63/51/41 64/50/41 
s 4
f 65/53/42 66/56/42 67/55/42 68/54/42 
s 8
f 61/49/45 65/53/45 68/54/45 62/52/45 
s 16
f 62/52/39 68/54/39 67/58/39 63/57/39 
s 32
f 63/59/46 67/55/46 66/56/46 64/60/46 
s 64
f 64/61/40 66/62/40 65/53/40 61/49/40 
s 1
f 69/63/47 70/64/48 71/65/49 72/66/50 
f 73/67/51 74/68/52 70/64/48 69/63/47 
f 75/69/53 76/70/54 74/68/52 73/67/51 
f 72/66/50 77/71/55 78/72/56 69/63/47 
f 69/63/47 78/72/56 79/73/57 73/67/51 
f 73/67/51 79/73/57 80/74/58 75/69/53 
f 77/71/55 81/75/59 78/72/56 
f 78/72/56 81/75/59 82/76/60 79/73/57 
f 79/73/57 82/76/60 83/77/61 80/74/58 
f 82/76/60 84/78/62 85/79/63 83/77/61 
f 84/78/62 86/80/64 87/81/65 85/79/63 
f 88/82/66 89/83/67 90/84/68 91/85/69 
f 70/64/48 92/86/70 93/87/71 71/65/49 
f 74/68/52 94/88/72 92/86/70 70/64/48 
f 76/70/54 95/89/73 94/88/72 74/68/52 
f 84/78/62 82/76/60 81/75/59 
f 86/80/64 84/78/62 81/75/59 
f 77/71/55 86/80/64 81/75/59 
f 96/90/74 87/91/65 86/92/64 97/93/75 
f 89/83/67 96/90/74 97/93/75 90/84/68 
f 90/84/68 97/93/75 77/71/55 72/66/50 
f 86/92/64 77/71/55 97/93/75 
f 91/85/69 90/84/68 72/66/50 71/65/49 
f 92/86/70 98/94/76 99/95/77 93/87/71 
f 94/88/72 100/96/78 98/94/76 92/86/70 
f 91/85/69 101/97/79 102/98/80 88/82/66 
f 103/99/81 100/96/78 94/88/72 95/89/73 
f 104/100/82 105/101/83 106/102/84 107/103/85 
f 108/104/86 109/105/87 105/101/83 104/100/82 
f 100/106/78 103/107/81 109/105/87 108/104/86 
f 104/100/82 110/108/88 111/109/89 108/104/86 
f 108/104/86 111/109/89 100/106/78 
f 106/102/84 112/110/90 113/111/91 107/103/85 
f 110/108/88 99/95/77 98/94/76 111/109/89 
f 111/109/89 98/94/76 100/106/78 
f 107/103/85 110/108/88 104/100/82 
f 99/95/77 113/111/91 101/97/79 93/87/71 
f 110/108/88 107/103/85 113/111/91 99/95/77 
f 101/97/79 113/111/91 112/110/90 102/98/80 
f 71/65/49 93/87/71 91/85/69 
f 93/87/71 101/97/79 91/85/69 
f 114/63/92 115/66/93 116/65/94 117/64/95 
f 118/67/96 114/63/92 117/64/95 119/68/97 
f 75/69/53 118/67/96 119/68/97 76/70/54 
f 115/66/93 114/63/92 120/72/98 121/71/99 
f 114/63/92 118/67/96 122/73/100 120/72/98 
f 118/67/96 75/69/53 80/74/58 122/73/100 
f 121/71/99 120/72/98 123/75/101 
f 120/72/98 122/73/100 124/76/102 123/75/101 
f 122/73/100 80/74/58 83/77/61 124/76/102 
f 124/76/102 83/77/61 85/79/63 125/78/103 
f 125/78/103 85/79/63 87/81/65 126/80/104 
f 88/82/66 127/85/105 128/84/106 89/83/67 
f 117/64/95 116/65/94 129/87/107 130/86/108 
f 119/68/97 117/64/95 130/86/108 131/88/109 
f 76/70/54 119/68/97 131/88/109 95/89/73 
f 125/78/103 123/75/101 124/76/102 
f 126/80/104 123/75/101 125/78/103 
f 121/71/99 123/75/101 126/80/104 
f 96/90/74 132/93/110 126/92/104 87/91/65 
f 89/83/67 128/84/106 132/93/110 96/90/74 
f 128/84/106 115/66/93 121/71/99 132/93/110 
f 126/92/104 132/93/110 121/71/99 
f 127/85/105 116/65/94 115/66/93 128/84/106 
f 130/86/108 129/87/107 133/95/111 134/94/112 
f 131/88/109 130/86/108 134/94/112 135/96/113 
f 127/85/105 88/82/66 102/98/80 136/97/114 
f 103/99/81 95/89/73 131/88/109 135/96/113 
f 137/100/115 138/103/116 106/102/84 105/101/83 
f 139/104/117 137/100/115 105/101/83 109/105/87 
f 135/106/113 139/104/117 109/105/87 103/107/81 
f 137/100/115 139/104/117 140/109/118 141/108/119 
f 139/104/117 135/106/113 140/109/118 
f 106/102/84 138/103/116 142/111/120 112/110/90 
f 141/108/119 140/109/118 134/94/112 133/95/111 
f 140/109/118 135/106/113 134/94/112 
f 138/103/116 137/100/115 141/108/119 
f 133/95/111 129/87/107 136/97/114 142/111/120 
f 141/108/119 133/95/111 142/111/120 138/103/116 
f 136/97/114 102/98/80 112/110/90 142/111/120 
f 116/65/94 127/85/105 129/87/107 
f 129/87/107 127/85/105 136/97/114 
# 116 polygons - 20 triangles

